<svg width="100%" height="100%" viewBox="0 0 77 275" version="1.1" xmlns="http://www.w3.org/2000/svg" xmlns:xlink="http://www.w3.org/1999/xlink" xml:space="preserve" xmlns:serif="http://www.serif.com/" style="fill-rule:evenodd;clip-rule:evenodd;stroke-linejoin:round;stroke-miterlimit:2;">
    <defs>
        <linearGradient xmlns="http://www.w3.org/2000/svg" id="_Linear1_custom" x1="0" y1="0" x2="1" y2="0" gradientUnits="userSpaceOnUse" gradientTransform="matrix(77.0001,-275,275,77.0001,1333,1748)">
            <stop offset="0" style="stop-color:rgb(1,185,195);stop-opacity:0.2"/>
            <stop offset="0.5" style="stop-color:rgb(1,185,195);stop-opacity:1"/>
            <stop offset="1" style="stop-color:rgb(1,185,195);stop-opacity:0.2"/>
        </linearGradient>
    </defs>
    <g transform="matrix(1,0,0,1,-1333,-1473)">
        <path d="M1335.5,1743C1336.88,1743 1338,1744.12 1338,1745.5C1338,1746.88 1336.88,1748 1335.5,1748C1334.12,1748 1333,1746.88 1333,1745.5C1333,1744.12 1334.12,1743 1335.5,1743ZM1353.5,1743C1354.88,1743 1356,1744.12 1356,1745.5C1356,1746.88 1354.88,1748 1353.5,1748C1352.12,1748 1351,1746.88 1351,1745.5C1351,1744.12 1352.12,1743 1353.5,1743ZM1371.5,1743C1372.88,1743 1374,1744.12 1374,1745.5C1374,1746.88 1372.88,1748 1371.5,1748C1370.12,1748 1369,1746.88 1369,1745.5C1369,1744.12 1370.12,1743 1371.5,1743ZM1389.5,1743C1390.88,1743 1392,1744.12 1392,1745.5C1392,1746.88 1390.88,1748 1389.5,1748C1388.12,1748 1387,1746.88 1387,1745.5C1387,1744.12 1388.12,1743 1389.5,1743ZM1407.5,1743C1408.88,1743 1410,1744.12 1410,1745.5C1410,1746.88 1408.88,1748 1407.5,1748C1406.12,1748 1405,1746.88 1405,1745.5C1405,1744.12 1406.12,1743 1407.5,1743ZM1335.5,1725C1336.88,1725 1338,1726.12 1338,1727.5C1338,1728.88 1336.88,1730 1335.5,1730C1334.12,1730 1333,1728.88 1333,1727.5C1333,1726.12 1334.12,1725 1335.5,1725ZM1353.5,1725C1354.88,1725 1356,1726.12 1356,1727.5C1356,1728.88 1354.88,1730 1353.5,1730C1352.12,1730 1351,1728.88 1351,1727.5C1351,1726.12 1352.12,1725 1353.5,1725ZM1371.5,1725C1372.88,1725 1374,1726.12 1374,1727.5C1374,1728.88 1372.88,1730 1371.5,1730C1370.12,1730 1369,1728.88 1369,1727.5C1369,1726.12 1370.12,1725 1371.5,1725ZM1389.5,1725C1390.88,1725 1392,1726.12 1392,1727.5C1392,1728.88 1390.88,1730 1389.5,1730C1388.12,1730 1387,1728.88 1387,1727.5C1387,1726.12 1388.12,1725 1389.5,1725ZM1407.5,1725C1408.88,1725 1410,1726.12 1410,1727.5C1410,1728.88 1408.88,1730 1407.5,1730C1406.12,1730 1405,1728.88 1405,1727.5C1405,1726.12 1406.12,1725 1407.5,1725ZM1335.5,1707C1336.88,1707 1338,1708.12 1338,1709.5C1338,1710.88 1336.88,1712 1335.5,1712C1334.12,1712 1333,1710.88 1333,1709.5C1333,1708.12 1334.12,1707 1335.5,1707ZM1407.5,1707C1408.88,1707 1410,1708.12 1410,1709.5C1410,1710.88 1408.88,1712 1407.5,1712C1406.12,1712 1405,1710.88 1405,1709.5C1405,1708.12 1406.12,1707 1407.5,1707ZM1389.5,1707C1390.88,1707 1392,1708.12 1392,1709.5C1392,1710.88 1390.88,1712 1389.5,1712C1388.12,1712 1387,1710.88 1387,1709.5C1387,1708.12 1388.12,1707 1389.5,1707ZM1371.5,1707C1372.88,1707 1374,1708.12 1374,1709.5C1374,1710.88 1372.88,1712 1371.5,1712C1370.12,1712 1369,1710.88 1369,1709.5C1369,1708.12 1370.12,1707 1371.5,1707ZM1353.5,1707C1354.88,1707 1356,1708.12 1356,1709.5C1356,1710.88 1354.88,1712 1353.5,1712C1352.12,1712 1351,1710.88 1351,1709.5C1351,1708.12 1352.12,1707 1353.5,1707ZM1335.5,1689C1336.88,1689 1338,1690.12 1338,1691.5C1338,1692.88 1336.88,1694 1335.5,1694C1334.12,1694 1333,1692.88 1333,1691.5C1333,1690.12 1334.12,1689 1335.5,1689ZM1353.5,1689C1354.88,1689 1356,1690.12 1356,1691.5C1356,1692.88 1354.88,1694 1353.5,1694C1352.12,1694 1351,1692.88 1351,1691.5C1351,1690.12 1352.12,1689 1353.5,1689ZM1371.5,1689C1372.88,1689 1374,1690.12 1374,1691.5C1374,1692.88 1372.88,1694 1371.5,1694C1370.12,1694 1369,1692.88 1369,1691.5C1369,1690.12 1370.12,1689 1371.5,1689ZM1389.5,1689C1390.88,1689 1392,1690.12 1392,1691.5C1392,1692.88 1390.88,1694 1389.5,1694C1388.12,1694 1387,1692.88 1387,1691.5C1387,1690.12 1388.12,1689 1389.5,1689ZM1407.5,1689C1408.88,1689 1410,1690.12 1410,1691.5C1410,1692.88 1408.88,1694 1407.5,1694C1406.12,1694 1405,1692.88 1405,1691.5C1405,1690.12 1406.12,1689 1407.5,1689ZM1335.5,1671C1336.88,1671 1338,1672.12 1338,1673.5C1338,1674.88 1336.88,1676 1335.5,1676C1334.12,1676 1333,1674.88 1333,1673.5C1333,1672.12 1334.12,1671 1335.5,1671ZM1353.5,1671C1354.88,1671 1356,1672.12 1356,1673.5C1356,1674.88 1354.88,1676 1353.5,1676C1352.12,1676 1351,1674.88 1351,1673.5C1351,1672.12 1352.12,1671 1353.5,1671ZM1371.5,1671C1372.88,1671 1374,1672.12 1374,1673.5C1374,1674.88 1372.88,1676 1371.5,1676C1370.12,1676 1369,1674.88 1369,1673.5C1369,1672.12 1370.12,1671 1371.5,1671ZM1389.5,1671C1390.88,1671 1392,1672.12 1392,1673.5C1392,1674.88 1390.88,1676 1389.5,1676C1388.12,1676 1387,1674.88 1387,1673.5C1387,1672.12 1388.12,1671 1389.5,1671ZM1407.5,1671C1408.88,1671 1410,1672.12 1410,1673.5C1410,1674.88 1408.88,1676 1407.5,1676C1406.12,1676 1405,1674.88 1405,1673.5C1405,1672.12 1406.12,1671 1407.5,1671ZM1335.5,1653C1336.88,1653 1338,1654.12 1338,1655.5C1338,1656.88 1336.88,1658 1335.5,1658C1334.12,1658 1333,1656.88 1333,1655.5C1333,1654.12 1334.12,1653 1335.5,1653ZM1353.5,1653C1354.88,1653 1356,1654.12 1356,1655.5C1356,1656.88 1354.88,1658 1353.5,1658C1352.12,1658 1351,1656.88 1351,1655.5C1351,1654.12 1352.12,1653 1353.5,1653ZM1371.5,1653C1372.88,1653 1374,1654.12 1374,1655.5C1374,1656.88 1372.88,1658 1371.5,1658C1370.12,1658 1369,1656.88 1369,1655.5C1369,1654.12 1370.12,1653 1371.5,1653ZM1389.5,1653C1390.88,1653 1392,1654.12 1392,1655.5C1392,1656.88 1390.88,1658 1389.5,1658C1388.12,1658 1387,1656.88 1387,1655.5C1387,1654.12 1388.12,1653 1389.5,1653ZM1407.5,1653C1408.88,1653 1410,1654.12 1410,1655.5C1410,1656.88 1408.88,1658 1407.5,1658C1406.12,1658 1405,1656.88 1405,1655.5C1405,1654.12 1406.12,1653 1407.5,1653ZM1353.5,1635C1354.88,1635 1356,1636.12 1356,1637.5C1356,1638.88 1354.88,1640 1353.5,1640C1352.12,1640 1351,1638.88 1351,1637.5C1351,1636.12 1352.12,1635 1353.5,1635ZM1371.5,1635C1372.88,1635 1374,1636.12 1374,1637.5C1374,1638.88 1372.88,1640 1371.5,1640C1370.12,1640 1369,1638.88 1369,1637.5C1369,1636.12 1370.12,1635 1371.5,1635ZM1389.5,1635C1390.88,1635 1392,1636.12 1392,1637.5C1392,1638.88 1390.88,1640 1389.5,1640C1388.12,1640 1387,1638.88 1387,1637.5C1387,1636.12 1388.12,1635 1389.5,1635ZM1407.5,1635C1408.88,1635 1410,1636.12 1410,1637.5C1410,1638.88 1408.88,1640 1407.5,1640C1406.12,1640 1405,1638.88 1405,1637.5C1405,1636.12 1406.12,1635 1407.5,1635ZM1335.5,1635C1336.88,1635 1338,1636.12 1338,1637.5C1338,1638.88 1336.88,1640 1335.5,1640C1334.12,1640 1333,1638.88 1333,1637.5C1333,1636.12 1334.12,1635 1335.5,1635ZM1371.5,1617C1372.88,1617 1374,1618.12 1374,1619.5C1374,1620.88 1372.88,1622 1371.5,1622C1370.12,1622 1369,1620.88 1369,1619.5C1369,1618.12 1370.12,1617 1371.5,1617ZM1389.5,1617C1390.88,1617 1392,1618.12 1392,1619.5C1392,1620.88 1390.88,1622 1389.5,1622C1388.12,1622 1387,1620.88 1387,1619.5C1387,1618.12 1388.12,1617 1389.5,1617ZM1335.5,1617C1336.88,1617 1338,1618.12 1338,1619.5C1338,1620.88 1336.88,1622 1335.5,1622C1334.12,1622 1333,1620.88 1333,1619.5C1333,1618.12 1334.12,1617 1335.5,1617ZM1353.5,1617C1354.88,1617 1356,1618.12 1356,1619.5C1356,1620.88 1354.88,1622 1353.5,1622C1352.12,1622 1351,1620.88 1351,1619.5C1351,1618.12 1352.12,1617 1353.5,1617ZM1407.5,1617C1408.88,1617 1410,1618.12 1410,1619.5C1410,1620.88 1408.88,1622 1407.5,1622C1406.12,1622 1405,1620.88 1405,1619.5C1405,1618.12 1406.12,1617 1407.5,1617ZM1335.5,1599C1336.88,1599 1338,1600.12 1338,1601.5C1338,1602.88 1336.88,1604 1335.5,1604C1334.12,1604 1333,1602.88 1333,1601.5C1333,1600.12 1334.12,1599 1335.5,1599ZM1371.5,1599C1372.88,1599 1374,1600.12 1374,1601.5C1374,1602.88 1372.88,1604 1371.5,1604C1370.12,1604 1369,1602.88 1369,1601.5C1369,1600.12 1370.12,1599 1371.5,1599ZM1389.5,1599C1390.88,1599 1392,1600.12 1392,1601.5C1392,1602.88 1390.88,1604 1389.5,1604C1388.12,1604 1387,1602.88 1387,1601.5C1387,1600.12 1388.12,1599 1389.5,1599ZM1407.5,1599C1408.88,1599 1410,1600.12 1410,1601.5C1410,1602.88 1408.88,1604 1407.5,1604C1406.12,1604 1405,1602.88 1405,1601.5C1405,1600.12 1406.12,1599 1407.5,1599ZM1353.5,1599C1354.88,1599 1356,1600.12 1356,1601.5C1356,1602.88 1354.88,1604 1353.5,1604C1352.12,1604 1351,1602.88 1351,1601.5C1351,1600.12 1352.12,1599 1353.5,1599ZM1353.5,1581C1354.88,1581 1356,1582.12 1356,1583.5C1356,1584.88 1354.88,1586 1353.5,1586C1352.12,1586 1351,1584.88 1351,1583.5C1351,1582.12 1352.12,1581 1353.5,1581ZM1407.5,1581C1408.88,1581 1410,1582.12 1410,1583.5C1410,1584.88 1408.88,1586 1407.5,1586C1406.12,1586 1405,1584.88 1405,1583.5C1405,1582.12 1406.12,1581 1407.5,1581ZM1389.5,1581C1390.88,1581 1392,1582.12 1392,1583.5C1392,1584.88 1390.88,1586 1389.5,1586C1388.12,1586 1387,1584.88 1387,1583.5C1387,1582.12 1388.12,1581 1389.5,1581ZM1335.5,1581C1336.88,1581 1338,1582.12 1338,1583.5C1338,1584.88 1336.88,1586 1335.5,1586C1334.12,1586 1333,1584.88 1333,1583.5C1333,1582.12 1334.12,1581 1335.5,1581ZM1371.5,1581C1372.88,1581 1374,1582.12 1374,1583.5C1374,1584.88 1372.88,1586 1371.5,1586C1370.12,1586 1369,1584.88 1369,1583.5C1369,1582.12 1370.12,1581 1371.5,1581ZM1389.5,1563C1390.88,1563 1392,1564.12 1392,1565.5C1392,1566.88 1390.88,1568 1389.5,1568C1388.12,1568 1387,1566.88 1387,1565.5C1387,1564.12 1388.12,1563 1389.5,1563ZM1371.5,1563C1372.88,1563 1374,1564.12 1374,1565.5C1374,1566.88 1372.88,1568 1371.5,1568C1370.12,1568 1369,1566.88 1369,1565.5C1369,1564.12 1370.12,1563 1371.5,1563ZM1407.5,1563C1408.88,1563 1410,1564.12 1410,1565.5C1410,1566.88 1408.88,1568 1407.5,1568C1406.12,1568 1405,1566.88 1405,1565.5C1405,1564.12 1406.12,1563 1407.5,1563ZM1353.5,1563C1354.88,1563 1356,1564.12 1356,1565.5C1356,1566.88 1354.88,1568 1353.5,1568C1352.12,1568 1351,1566.88 1351,1565.5C1351,1564.12 1352.12,1563 1353.5,1563ZM1335.5,1563C1336.88,1563 1338,1564.12 1338,1565.5C1338,1566.88 1336.88,1568 1335.5,1568C1334.12,1568 1333,1566.88 1333,1565.5C1333,1564.12 1334.12,1563 1335.5,1563ZM1353.5,1545C1354.88,1545 1356,1546.12 1356,1547.5C1356,1548.88 1354.88,1550 1353.5,1550C1352.12,1550 1351,1548.88 1351,1547.5C1351,1546.12 1352.12,1545 1353.5,1545ZM1371.5,1545C1372.88,1545 1374,1546.12 1374,1547.5C1374,1548.88 1372.88,1550 1371.5,1550C1370.12,1550 1369,1548.88 1369,1547.5C1369,1546.12 1370.12,1545 1371.5,1545ZM1389.5,1545C1390.88,1545 1392,1546.12 1392,1547.5C1392,1548.88 1390.88,1550 1389.5,1550C1388.12,1550 1387,1548.88 1387,1547.5C1387,1546.12 1388.12,1545 1389.5,1545ZM1407.5,1545C1408.88,1545 1410,1546.12 1410,1547.5C1410,1548.88 1408.88,1550 1407.5,1550C1406.12,1550 1405,1548.88 1405,1547.5C1405,1546.12 1406.12,1545 1407.5,1545ZM1335.5,1545C1336.88,1545 1338,1546.12 1338,1547.5C1338,1548.88 1336.88,1550 1335.5,1550C1334.12,1550 1333,1548.88 1333,1547.5C1333,1546.12 1334.12,1545 1335.5,1545ZM1371.5,1527C1372.88,1527 1374,1528.12 1374,1529.5C1374,1530.88 1372.88,1532 1371.5,1532C1370.12,1532 1369,1530.88 1369,1529.5C1369,1528.12 1370.12,1527 1371.5,1527ZM1389.5,1527C1390.88,1527 1392,1528.12 1392,1529.5C1392,1530.88 1390.88,1532 1389.5,1532C1388.12,1532 1387,1530.88 1387,1529.5C1387,1528.12 1388.12,1527 1389.5,1527ZM1407.5,1527C1408.88,1527 1410,1528.12 1410,1529.5C1410,1530.88 1408.88,1532 1407.5,1532C1406.12,1532 1405,1530.88 1405,1529.5C1405,1528.12 1406.12,1527 1407.5,1527ZM1335.5,1527C1336.88,1527 1338,1528.12 1338,1529.5C1338,1530.88 1336.88,1532 1335.5,1532C1334.12,1532 1333,1530.88 1333,1529.5C1333,1528.12 1334.12,1527 1335.5,1527ZM1353.5,1527C1354.88,1527 1356,1528.12 1356,1529.5C1356,1530.88 1354.88,1532 1353.5,1532C1352.12,1532 1351,1530.88 1351,1529.5C1351,1528.12 1352.12,1527 1353.5,1527ZM1353.5,1509C1354.88,1509 1356,1510.12 1356,1511.5C1356,1512.88 1354.88,1514 1353.5,1514C1352.12,1514 1351,1512.88 1351,1511.5C1351,1510.12 1352.12,1509 1353.5,1509ZM1371.5,1509C1372.88,1509 1374,1510.12 1374,1511.5C1374,1512.88 1372.88,1514 1371.5,1514C1370.12,1514 1369,1512.88 1369,1511.5C1369,1510.12 1370.12,1509 1371.5,1509ZM1389.5,1509C1390.88,1509 1392,1510.12 1392,1511.5C1392,1512.88 1390.88,1514 1389.5,1514C1388.12,1514 1387,1512.88 1387,1511.5C1387,1510.12 1388.12,1509 1389.5,1509ZM1407.5,1509C1408.88,1509 1410,1510.12 1410,1511.5C1410,1512.88 1408.88,1514 1407.5,1514C1406.12,1514 1405,1512.88 1405,1511.5C1405,1510.12 1406.12,1509 1407.5,1509ZM1335.5,1509C1336.88,1509 1338,1510.12 1338,1511.5C1338,1512.88 1336.88,1514 1335.5,1514C1334.12,1514 1333,1512.88 1333,1511.5C1333,1510.12 1334.12,1509 1335.5,1509ZM1407.5,1491C1408.88,1491 1410,1492.12 1410,1493.5C1410,1494.88 1408.88,1496 1407.5,1496C1406.12,1496 1405,1494.88 1405,1493.5C1405,1492.12 1406.12,1491 1407.5,1491ZM1389.5,1491C1390.88,1491 1392,1492.12 1392,1493.5C1392,1494.88 1390.88,1496 1389.5,1496C1388.12,1496 1387,1494.88 1387,1493.5C1387,1492.12 1388.12,1491 1389.5,1491ZM1371.5,1491C1372.88,1491 1374,1492.12 1374,1493.5C1374,1494.88 1372.88,1496 1371.5,1496C1370.12,1496 1369,1494.88 1369,1493.5C1369,1492.12 1370.12,1491 1371.5,1491ZM1335.5,1491C1336.88,1491 1338,1492.12 1338,1493.5C1338,1494.88 1336.88,1496 1335.5,1496C1334.12,1496 1333,1494.88 1333,1493.5C1333,1492.12 1334.12,1491 1335.5,1491ZM1353.5,1491C1354.88,1491 1356,1492.12 1356,1493.5C1356,1494.88 1354.88,1496 1353.5,1496C1352.12,1496 1351,1494.88 1351,1493.5C1351,1492.12 1352.12,1491 1353.5,1491ZM1389.5,1473C1390.88,1473 1392,1474.12 1392,1475.5C1392,1476.88 1390.88,1478 1389.5,1478C1388.12,1478 1387,1476.88 1387,1475.5C1387,1474.12 1388.12,1473 1389.5,1473ZM1353.5,1473C1354.88,1473 1356,1474.12 1356,1475.5C1356,1476.88 1354.88,1478 1353.5,1478C1352.12,1478 1351,1476.88 1351,1475.5C1351,1474.12 1352.12,1473 1353.5,1473ZM1407.5,1473C1408.88,1473 1410,1474.12 1410,1475.5C1410,1476.88 1408.88,1478 1407.5,1478C1406.12,1478 1405,1476.88 1405,1475.5C1405,1474.12 1406.12,1473 1407.5,1473ZM1371.5,1473C1372.88,1473 1374,1474.12 1374,1475.5C1374,1476.88 1372.88,1478 1371.5,1478C1370.12,1478 1369,1476.88 1369,1475.5C1369,1474.12 1370.12,1473 1371.5,1473ZM1335.5,1473C1336.88,1473 1338,1474.12 1338,1475.5C1338,1476.88 1336.88,1478 1335.5,1478C1334.12,1478 1333,1476.88 1333,1475.5C1333,1474.12 1334.12,1473 1335.5,1473Z" fill="url(#_Linear1_custom)"/>
    </g>
</svg>
